<svg width="375" height="658" viewBox="0 0 375 658" fill="none" xmlns="http://www.w3.org/2000/svg">
<mask id="mask0" mask-type="alpha" maskUnits="userSpaceOnUse" x="-533" y="0" width="1440" height="658">
<rect x="-533" width="1440" height="658" fill="#C4C4C4"/>
</mask>
<g mask="url(#mask0)">
<path d="M62.1726 367.401H60.466V614.611H62.1726V367.401Z" fill="#7D9FAD" fill-opacity="0.08"/>
<path d="M74.1158 356.675H51.1992V625.095H74.1158V356.675ZM69.9714 620.706H55.5875V361.307H69.9714V620.706Z" fill="#7D9FAD" fill-opacity="0.08"/>
<path d="M65.0964 367.401H63.146V614.611H65.0964V367.401Z" fill="#7D9FAD" fill-opacity="0.08"/>
<path d="M213.322 537.571H184.067V544.885H213.322V537.571Z" fill="#7D9FAD" fill-opacity="0.08"/>
<path d="M869.86 335.708V278.416H826.465V238.921H806.961H787.458H767.954V278.416H724.071V335.708H716.026V403.727H666.048V381.054H630.698V364.232H607.781V347.41H586.328L585.109 308.403L583.646 347.41H562.436V364.232H550.246V381.054H532.693V403.727H492.711V425.669H481.252V546.104H469.062V379.835H425.423V366.914H409.821V358.625H388.61V366.914V379.835V381.298V512.948L362.037 509.535V324.249H316.447V307.671H278.903H199.183V324.249H177.485V450.292H173.828V440.784H158.225V434.689H137.015V440.784V450.292V451.268V510.51H122.875V343.509H113.367V292.556H83.1365V257.693H69.4841H56.0754H42.4229V292.556H12.1925V343.509H7.31659V470.527H-1.46002V461.507H-31.2028V455.9V452.243V434.446H-108.729H-146.517V210.396H-168.459V190.893H-176.26V178.459H-185.281L-186.5 0L-187.719 178.459H-196.983V190.893H-204.784V210.396H-226.726V347.898H-235.746V331.563L-276.216 291.337L-293.281 325.225V297.432H-330.582V263.3H-419.323V228.437H-474.42V201.864H-510.014V175.534H-543.414L-545.608 114.828L-548.046 175.534H-580.958V201.864H-599.731V228.194H-627.036V263.3H-689.203V297.432H-707V663.127H-545.365H-521.717H755.764H764.053H828.903H884V335.708H869.86ZM-656.047 622.413H-669.456V609.004H-656.047V622.413ZM-656.047 604.859H-669.456V591.451H-656.047V604.859ZM-656.047 587.306H-669.456V573.897H-656.047V587.306ZM-656.047 569.753H-669.456V556.344H-656.047V569.753ZM-656.047 552.443H-669.456V539.034H-656.047V552.443ZM-656.047 534.89H-669.456V521.481H-656.047V534.89ZM-656.047 517.336H-669.456V503.928H-656.047V517.336ZM-656.047 499.783H-669.456V486.374H-656.047V499.783ZM-656.047 482.23H-669.456V468.821H-656.047V482.23ZM-656.047 464.92H-669.456V451.511H-656.047V464.92ZM-656.047 447.367H-669.456V433.958H-656.047V447.367ZM-656.047 429.813H-669.456V416.405H-656.047V429.813ZM-656.047 412.26H-669.456V398.851H-656.047V412.26ZM-656.047 394.707H-669.456V381.298H-656.047V394.707ZM-656.047 377.397H-669.456V363.988H-656.047V377.397ZM-656.047 359.844H-669.456V346.435H-656.047V359.844ZM-656.047 342.29H-669.456V328.882H-656.047V342.29ZM-656.047 324.737H-669.456V311.328H-656.047V324.737ZM-637.762 622.413H-651.171V609.004H-637.762V622.413ZM-637.762 604.859H-651.171V591.451H-637.762V604.859ZM-637.762 587.306H-651.171V573.897H-637.762V587.306ZM-637.762 569.753H-651.171V556.344H-637.762V569.753ZM-637.762 552.443H-651.171V539.034H-637.762V552.443ZM-637.762 534.89H-651.171V521.481H-637.762V534.89ZM-637.762 517.336H-651.171V503.928H-637.762V517.336ZM-637.762 499.783H-651.171V486.374H-637.762V499.783ZM-637.762 482.23H-651.171V468.821H-637.762V482.23ZM-637.762 464.92H-651.171V451.511H-637.762V464.92ZM-637.762 447.367H-651.171V433.958H-637.762V447.367ZM-637.762 429.813H-651.171V416.405H-637.762V429.813ZM-637.762 412.26H-651.171V398.851H-637.762V412.26ZM-637.762 394.707H-651.171V381.298H-637.762V394.707ZM-637.762 377.397H-651.171V363.988H-637.762V377.397ZM-637.762 359.844H-651.171V346.435H-637.762V359.844ZM-637.762 342.29H-651.171V328.882H-637.762V342.29ZM-637.762 324.737H-651.171V311.328H-637.762V324.737ZM-619.478 622.413H-632.887V609.004H-619.478V622.413ZM-619.478 604.859H-632.887V591.451H-619.478V604.859ZM-619.478 587.306H-632.887V573.897H-619.478V587.306ZM-619.478 569.753H-632.887V556.344H-619.478V569.753ZM-619.478 552.443H-632.887V539.034H-619.478V552.443ZM-619.478 534.89H-632.887V521.481H-619.478V534.89ZM-619.478 517.336H-632.887V503.928H-619.478V517.336ZM-619.478 499.783H-632.887V486.374H-619.478V499.783ZM-619.478 482.23H-632.887V468.821H-619.478V482.23ZM-619.478 464.92H-632.887V451.511H-619.478V464.92ZM-619.478 447.367H-632.887V433.958H-619.478V447.367ZM-619.478 429.813H-632.887V416.405H-619.478V429.813ZM-619.478 412.26H-632.887V398.851H-619.478V412.26ZM-619.478 394.707H-632.887V381.298H-619.478V394.707ZM-619.478 377.397H-632.887V363.988H-619.478V377.397ZM-619.478 359.844H-632.887V346.435H-619.478V359.844ZM-619.478 342.29H-632.887V328.882H-619.478V342.29ZM-619.478 324.737H-632.887V311.328H-619.478V324.737ZM-601.437 622.413H-614.846V609.004H-601.437V622.413ZM-601.437 604.859H-614.846V591.451H-601.437V604.859ZM-601.437 587.306H-614.846V573.897H-601.437V587.306ZM-601.437 569.753H-614.846V556.344H-601.437V569.753ZM-601.437 552.443H-614.846V539.034H-601.437V552.443ZM-601.437 534.89H-614.846V521.481H-601.437V534.89ZM-601.437 517.336H-614.846V503.928H-601.437V517.336ZM-601.437 499.783H-614.846V486.374H-601.437V499.783ZM-601.437 482.23H-614.846V468.821H-601.437V482.23ZM-601.437 464.92H-614.846V451.511H-601.437V464.92ZM-601.437 447.367H-614.846V433.958H-601.437V447.367ZM-601.437 429.813H-614.846V416.405H-601.437V429.813ZM-601.437 412.26H-614.846V398.851H-601.437V412.26ZM-601.437 394.707H-614.846V381.298H-601.437V394.707ZM-601.437 377.397H-614.846V363.988H-601.437V377.397ZM-601.437 359.844H-614.846V346.435H-601.437V359.844ZM-601.437 342.29H-614.846V328.882H-601.437V342.29ZM-601.437 324.737H-614.846V311.328H-601.437V324.737ZM-583.153 622.413H-596.561V609.004H-583.153V622.413ZM-583.153 604.859H-596.561V591.451H-583.153V604.859ZM-583.153 587.306H-596.561V573.897H-583.153V587.306ZM-583.153 569.753H-596.561V556.344H-583.153V569.753ZM-583.153 552.443H-596.561V539.034H-583.153V552.443ZM-583.153 534.89H-596.561V521.481H-583.153V534.89ZM-583.153 517.336H-596.561V503.928H-583.153V517.336ZM-583.153 499.783H-596.561V486.374H-583.153V499.783ZM-583.153 482.23H-596.561V468.821H-583.153V482.23ZM-583.153 464.92H-596.561V451.511H-583.153V464.92ZM-583.153 447.367H-596.561V433.958H-583.153V447.367ZM-583.153 429.813H-596.561V416.405H-583.153V429.813ZM-583.153 412.26H-596.561V398.851H-583.153V412.26ZM-583.153 394.707H-596.561V381.298H-583.153V394.707ZM-583.153 377.397H-596.561V363.988H-583.153V377.397ZM-583.153 359.844H-596.561V346.435H-583.153V359.844ZM-583.153 342.29H-596.561V328.882H-583.153V342.29ZM-583.153 324.737H-596.561V311.328H-583.153V324.737ZM-190.888 239.408H-182.355V247.941H-190.888V239.408ZM-190.888 266.714H-182.355V275.246H-190.888V266.714ZM-190.888 293.775H-182.355V302.308H-190.888V293.775ZM-190.888 321.08H-182.355V329.613H-190.888V321.08ZM-190.888 348.142H-182.355V356.674H-190.888V348.142ZM-190.888 375.447H-182.355V383.98H-190.888V375.447ZM-190.888 402.508H-182.355V411.041H-190.888V402.508ZM-190.888 429.813H-182.355V438.346H-190.888V429.813ZM-190.888 456.875H-182.355V465.408H-190.888V456.875ZM-237.94 354.236H-226.482V365.695H-237.94V354.236ZM-237.94 368.377H-226.482V379.835H-237.94V368.377ZM-237.94 382.517H-226.482V393.975H-237.94V382.517ZM-237.94 396.901H-226.482V408.359H-237.94V396.901ZM-237.94 411.041H-226.482V422.5H-237.94V411.041ZM-264.27 483.449V471.99H-252.812V483.449H-264.27ZM-252.812 486.618V498.076H-264.27V486.618H-252.812ZM-264.27 469.065V457.606H-252.812V469.065H-264.27ZM-264.27 454.437V442.978H-252.812V454.437H-264.27ZM-269.877 354.236H-258.419V365.695H-269.877V354.236ZM-269.877 368.377H-258.419V379.835H-269.877V368.377ZM-269.877 382.517H-258.419V393.975H-269.877V382.517ZM-269.877 396.901H-258.419V408.359H-269.877V396.901ZM-269.877 411.041H-258.419V422.5H-269.877V411.041ZM-278.654 483.449V471.99H-267.196V483.449H-278.654ZM-267.439 486.618V498.076H-278.898V486.618H-267.439ZM-278.654 469.065V457.606H-267.196V469.065H-278.654ZM-278.654 454.437V442.978H-267.196V454.437H-278.654ZM-284.505 354.236H-273.047V365.695H-284.505V354.236ZM-284.505 368.377H-273.047V379.835H-284.505V368.377ZM-284.505 382.517H-273.047V393.975H-284.505V382.517ZM-284.505 396.901H-273.047V408.359H-284.505V396.901ZM-284.505 411.041H-273.047V422.5H-284.505V411.041ZM-293.281 483.449V471.99H-281.823V483.449H-293.281ZM-281.823 486.618V498.076H-293.281V486.618H-281.823ZM-293.281 469.065V457.606H-281.823V469.065H-293.281ZM-293.281 454.437V442.978H-281.823V454.437H-293.281ZM-298.889 354.236H-287.43V365.695H-298.889V354.236ZM-298.889 368.377H-287.43V379.835H-298.889V368.377ZM-298.889 382.517H-287.43V393.975H-298.889V382.517ZM-298.889 396.901H-287.43V408.359H-298.889V396.901ZM-298.889 411.041H-287.43V422.5H-298.889V411.041ZM-307.909 442.978H-296.451V454.437H-307.909V442.978ZM-307.909 457.606H-296.451V469.065H-307.909V457.606ZM-307.909 486.618H-296.451V498.076H-307.909V486.618ZM-501.482 622.413H-514.89V609.004H-501.482V622.413ZM-501.482 604.859H-514.89V591.451H-501.482V604.859ZM-501.482 587.306H-514.89V573.897H-501.482V587.306ZM-501.482 569.753H-514.89V556.344H-501.482V569.753ZM-501.482 552.443H-514.89V539.034H-501.482V552.443ZM-501.482 534.89H-514.89V521.481H-501.482V534.89ZM-501.482 517.336H-514.89V503.928H-501.482V517.336ZM-501.482 499.783H-514.89V486.374H-501.482V499.783ZM-501.482 482.23H-514.89V468.821H-501.482V482.23ZM-501.482 464.92H-514.89V451.511H-501.482V464.92ZM-501.482 447.367H-514.89V433.958H-501.482V447.367ZM-501.482 429.813H-514.89V416.405H-501.482V429.813ZM-501.482 412.26H-514.89V398.851H-501.482V412.26ZM-501.482 394.707H-514.89V381.298H-501.482V394.707ZM-501.482 377.397H-514.89V363.988H-501.482V377.397ZM-501.482 359.844H-514.89V346.435H-501.482V359.844ZM-501.482 342.29H-514.89V328.882H-501.482V342.29ZM-501.482 324.737H-514.89V311.328H-501.482V324.737ZM-483.685 622.413H-497.093V609.004H-483.685V622.413ZM-483.685 604.859H-497.093V591.451H-483.685V604.859ZM-483.685 587.306H-497.093V573.897H-483.685V587.306ZM-483.685 569.753H-497.093V556.344H-483.685V569.753ZM-483.685 552.443H-497.093V539.034H-483.685V552.443ZM-483.685 534.89H-497.093V521.481H-483.685V534.89ZM-483.685 517.336H-497.093V503.928H-483.685V517.336ZM-483.685 499.783H-497.093V486.374H-483.685V499.783ZM-483.685 482.23H-497.093V468.821H-483.685V482.23ZM-483.685 464.92H-497.093V451.511H-483.685V464.92ZM-483.685 447.367H-497.093V433.958H-483.685V447.367ZM-483.685 429.813H-497.093V416.405H-483.685V429.813ZM-483.685 412.26H-497.093V398.851H-483.685V412.26ZM-483.685 394.707H-497.093V381.298H-483.685V394.707ZM-483.685 377.397H-497.093V363.988H-483.685V377.397ZM-483.685 359.844H-497.093V346.435H-483.685V359.844ZM-483.685 342.29H-497.093V328.882H-483.685V342.29ZM-483.685 324.737H-497.093V311.328H-483.685V324.737ZM-465.888 622.413H-479.296V609.004H-465.888V622.413ZM-465.888 604.859H-479.296V591.451H-465.888V604.859ZM-465.888 587.306H-479.296V573.897H-465.888V587.306ZM-465.888 569.753H-479.296V556.344H-465.888V569.753ZM-465.888 552.443H-479.296V539.034H-465.888V552.443ZM-465.888 534.89H-479.296V521.481H-465.888V534.89ZM-465.888 517.336H-479.296V503.928H-465.888V517.336ZM-465.888 499.783H-479.296V486.374H-465.888V499.783ZM-465.888 482.23H-479.296V468.821H-465.888V482.23ZM-465.888 464.92H-479.296V451.511H-465.888V464.92ZM-465.888 447.367H-479.296V433.958H-465.888V447.367ZM-465.888 429.813H-479.296V416.405H-465.888V429.813ZM-465.888 412.26H-479.296V398.851H-465.888V412.26ZM-465.888 394.707H-479.296V381.298H-465.888V394.707ZM-465.888 377.397H-479.296V363.988H-465.888V377.397ZM-465.888 359.844H-479.296V346.435H-465.888V359.844ZM-465.888 342.29H-479.296V328.882H-465.888V342.29ZM-465.888 324.737H-479.296V311.328H-465.888V324.737ZM-448.335 622.413H-461.743V609.004H-448.335V622.413ZM-448.335 604.859H-461.743V591.451H-448.335V604.859ZM-448.335 587.306H-461.743V573.897H-448.335V587.306ZM-448.335 569.753H-461.743V556.344H-448.335V569.753ZM-448.335 552.443H-461.743V539.034H-448.335V552.443ZM-448.335 534.89H-461.743V521.481H-448.335V534.89ZM-448.335 517.336H-461.743V503.928H-448.335V517.336ZM-448.335 499.783H-461.743V486.374H-448.335V499.783ZM-448.335 482.23H-461.743V468.821H-448.335V482.23ZM-448.335 464.92H-461.743V451.511H-448.335V464.92ZM-448.335 447.367H-461.743V433.958H-448.335V447.367ZM-448.335 429.813H-461.743V416.405H-448.335V429.813ZM-448.335 412.26H-461.743V398.851H-448.335V412.26ZM-448.335 394.707H-461.743V381.298H-448.335V394.707ZM-448.335 377.397H-461.743V363.988H-448.335V377.397ZM-448.335 359.844H-461.743V346.435H-448.335V359.844ZM-448.335 342.29H-461.743V328.882H-448.335V342.29ZM-448.335 324.737H-461.743V311.328H-448.335V324.737ZM-430.538 622.413H-443.702V609.004H-430.294V622.413H-430.538ZM-430.538 604.859H-443.702V591.451H-430.294V604.859H-430.538ZM-430.538 587.306H-443.702V573.897H-430.294V587.306H-430.538ZM-430.538 569.753H-443.702V556.344H-430.294V569.753H-430.538ZM-430.538 552.443H-443.702V539.034H-430.294V552.443H-430.538ZM-430.538 534.89H-443.702V521.481H-430.294V534.89H-430.538ZM-430.538 517.336H-443.702V503.928H-430.294V517.336H-430.538ZM-430.538 499.783H-443.702V486.374H-430.294V499.783H-430.538ZM-430.538 482.23H-443.702V468.821H-430.294V482.23H-430.538ZM-430.538 464.92H-443.702V451.511H-430.294V464.92H-430.538ZM-430.538 447.367H-443.702V433.958H-430.294V447.367H-430.538ZM-430.538 429.813H-443.702V416.405H-430.294V429.813H-430.538ZM-430.538 412.26H-443.702V398.851H-430.294V412.26H-430.538ZM-430.538 394.707H-443.702V381.298H-430.294V394.707H-430.538ZM-430.538 377.397H-443.702V363.988H-430.294V377.397H-430.538ZM-430.538 359.844H-443.702V346.435H-430.294V359.844H-430.538ZM-430.538 342.29H-443.702V328.882H-430.294V342.29H-430.538ZM-430.538 324.737H-443.702V311.328H-430.294V324.737H-430.538ZM-412.741 622.413H-426.149V609.004H-412.741V622.413ZM-412.741 604.859H-426.149V591.451H-412.741V604.859ZM-412.741 587.306H-426.149V573.897H-412.741V587.306ZM-412.741 569.753H-426.149V556.344H-412.741V569.753ZM-412.741 552.443H-426.149V539.034H-412.741V552.443ZM-412.741 534.89H-426.149V521.481H-412.741V534.89ZM-412.741 517.336H-426.149V503.928H-412.741V517.336ZM-412.741 499.783H-426.149V486.374H-412.741V499.783ZM-412.741 482.23H-426.149V468.821H-412.741V482.23ZM-412.741 464.92H-426.149V451.511H-412.741V464.92ZM-412.741 447.367H-426.149V433.958H-412.741V447.367ZM-412.741 429.813H-426.149V416.405H-412.741V429.813ZM-412.741 412.26H-426.149V398.851H-412.741V412.26ZM-412.741 394.707H-426.149V381.298H-412.741V394.707ZM-412.741 377.397H-426.149V363.988H-412.741V377.397ZM-412.741 359.844H-426.149V346.435H-412.741V359.844ZM-412.741 342.29H-426.149V328.882H-412.741V342.29ZM-412.741 324.737H-426.149V311.328H-412.741V324.737ZM-394.944 622.413H-408.352V609.004H-394.944V622.413ZM-394.944 604.859H-408.352V591.451H-394.944V604.859ZM-394.944 587.306H-408.352V573.897H-394.944V587.306ZM-394.944 569.753H-408.352V556.344H-394.944V569.753ZM-394.944 552.443H-408.352V539.034H-394.944V552.443ZM-394.944 534.89H-408.352V521.481H-394.944V534.89ZM-394.944 517.336H-408.352V503.928H-394.944V517.336ZM-394.944 499.783H-408.352V486.374H-394.944V499.783ZM-394.944 482.23H-408.352V468.821H-394.944V482.23ZM-394.944 464.92H-408.352V451.511H-394.944V464.92ZM-394.944 447.367H-408.352V433.958H-394.944V447.367ZM-394.944 429.813H-408.352V416.405H-394.944V429.813ZM-394.944 412.26H-408.352V398.851H-394.944V412.26ZM-394.944 394.707H-408.352V381.298H-394.944V394.707ZM-394.944 377.397H-408.352V363.988H-394.944V377.397ZM-394.944 359.844H-408.352V346.435H-394.944V359.844ZM-394.944 342.29H-408.352V328.882H-394.944V342.29ZM-394.944 324.737H-408.352V311.328H-394.944V324.737ZM-377.147 622.413H-390.555V609.004H-377.147V622.413ZM-377.147 604.859H-390.555V591.451H-377.147V604.859ZM-377.147 587.306H-390.555V573.897H-377.147V587.306ZM-377.147 569.753H-390.555V556.344H-377.147V569.753ZM-377.147 552.443H-390.555V539.034H-377.147V552.443ZM-377.147 534.89H-390.555V521.481H-377.147V534.89ZM-377.147 517.336H-390.555V503.928H-377.147V517.336ZM-377.147 499.783H-390.555V486.374H-377.147V499.783ZM-377.147 482.23H-390.555V468.821H-377.147V482.23ZM-377.147 464.92H-390.555V451.511H-377.147V464.92ZM-377.147 447.367H-390.555V433.958H-377.147V447.367ZM-377.147 429.813H-390.555V416.405H-377.147V429.813ZM-377.147 412.26H-390.555V398.851H-377.147V412.26ZM-377.147 394.707H-390.555V381.298H-377.147V394.707ZM-377.147 377.397H-390.555V363.988H-377.147V377.397ZM-377.147 359.844H-390.555V346.435H-377.147V359.844ZM-377.147 342.29H-390.555V328.882H-377.147V342.29ZM-377.147 324.737H-390.555V311.328H-377.147V324.737ZM-359.35 622.413H-372.758V609.004H-359.35V622.413ZM-359.35 604.859H-372.758V591.451H-359.35V604.859ZM-359.35 587.306H-372.758V573.897H-359.35V587.306ZM-359.35 569.753H-372.758V556.344H-359.35V569.753ZM-359.35 552.443H-372.758V539.034H-359.35V552.443ZM-359.35 534.89H-372.758V521.481H-359.35V534.89ZM-359.35 517.336H-372.758V503.928H-359.35V517.336ZM-359.35 499.783H-372.758V486.374H-359.35V499.783ZM-359.35 482.23H-372.758V468.821H-359.35V482.23ZM-359.35 464.92H-372.758V451.511H-359.35V464.92ZM-359.35 447.367H-372.758V433.958H-359.35V447.367ZM-359.35 429.813H-372.758V416.405H-359.35V429.813ZM-359.35 412.26H-372.758V398.851H-359.35V412.26ZM-359.35 394.707H-372.758V381.298H-359.35V394.707ZM-359.35 377.397H-372.758V363.988H-359.35V377.397ZM-359.35 359.844H-372.758V346.435H-359.35V359.844ZM-359.35 342.29H-372.758V328.882H-359.35V342.29ZM-359.35 324.737H-372.758V311.328H-359.35V324.737ZM-341.796 622.413H-355.205V609.004H-341.796V622.413ZM-341.796 604.859H-355.205V591.451H-341.796V604.859ZM-341.796 587.306H-355.205V573.897H-341.796V587.306ZM-341.796 569.753H-355.205V556.344H-341.796V569.753ZM-341.796 552.443H-355.205V539.034H-341.796V552.443ZM-341.796 534.89H-355.205V521.481H-341.796V534.89ZM-341.796 517.336H-355.205V503.928H-341.796V517.336ZM-341.796 499.783H-355.205V486.374H-341.796V499.783ZM-341.796 482.23H-355.205V468.821H-341.796V482.23ZM-341.796 464.92H-355.205V451.511H-341.796V464.92ZM-341.796 447.367H-355.205V433.958H-341.796V447.367ZM-341.796 429.813H-355.205V416.405H-341.796V429.813ZM-341.796 412.26H-355.205V398.851H-341.796V412.26ZM-341.796 394.707H-355.205V381.298H-341.796V394.707ZM-341.796 377.397H-355.205V363.988H-341.796V377.397ZM-341.796 359.844H-355.205V346.435H-341.796V359.844ZM-341.796 342.29H-355.205V328.882H-341.796V342.29ZM-341.796 324.737H-355.205V311.328H-341.796V324.737ZM-324 622.413H-337.408V609.004H-324V622.413ZM-324 604.859H-337.408V591.451H-324V604.859ZM-324 587.306H-337.408V573.897H-324V587.306ZM-324 569.753H-337.408V556.344H-324V569.753ZM-324 552.443H-337.408V539.034H-324V552.443ZM-324 534.89H-337.408V521.481H-324V534.89ZM-324 517.336H-337.408V503.928H-324V517.336ZM-324 499.783H-337.408V486.374H-324V499.783ZM-324 482.23H-337.408V468.821H-324V482.23ZM-324 464.92H-337.408V451.511H-324V464.92ZM-324 447.367H-337.408V433.958H-324V447.367ZM-324 429.813H-337.408V416.405H-324V429.813ZM-324 412.26H-337.408V398.851H-324V412.26ZM-324 394.707H-337.408V381.298H-324V394.707ZM-324 377.397H-337.408V363.988H-324V377.397ZM-324 359.844H-337.408V346.435H-324V359.844ZM-324 342.29H-337.408V328.882H-324V342.29ZM-324 324.737H-337.408V311.328H-324V324.737ZM-309.372 626.313H-320.83V614.855H-309.372V626.313ZM-309.372 612.417H-320.83V600.959H-309.372V612.417ZM-309.372 598.033H-320.83V586.575H-309.372V598.033ZM-309.372 584.137H-320.83V572.678H-309.372V584.137ZM-309.372 569.996H-320.83V558.538H-309.372V569.996ZM-309.372 556.1H-320.83V544.642H-309.372V556.1ZM-309.372 542.204H-320.83V530.745H-309.372V542.204ZM-307.909 501.246H-296.451V512.704H-307.909V501.246ZM-294.744 626.313H-306.203V614.855H-294.744V626.313ZM-294.744 612.417H-306.203V600.959H-294.744V612.417ZM-294.744 598.033H-306.203V586.575H-294.744V598.033ZM-294.744 584.137H-306.203V572.678H-294.744V584.137ZM-294.744 569.996H-306.203V558.538H-294.744V569.996ZM-294.744 556.1H-306.203V544.642H-294.744V556.1ZM-294.744 542.204H-306.203V530.745H-294.744V542.204ZM-293.281 501.246H-281.823V512.704H-293.281V501.246ZM-280.36 626.313H-291.819V614.855H-280.36V626.313ZM-280.36 612.417H-291.819V600.959H-280.36V612.417ZM-280.36 598.033H-291.819V586.575H-280.36V598.033ZM-280.36 584.137H-291.819V572.678H-280.36V584.137ZM-280.36 569.996H-291.819V558.538H-280.36V569.996ZM-280.36 556.1H-291.819V544.642H-280.36V556.1ZM-280.36 542.204H-291.819V530.745H-280.36V542.204ZM-278.654 501.246H-267.196V512.704H-278.654V501.246ZM-265.733 626.313H-277.191V614.855H-265.733V626.313ZM-265.733 612.417H-277.191V600.959H-265.733V612.417ZM-265.733 598.033H-277.191V586.575H-265.733V598.033ZM-265.733 584.137H-277.191V572.678H-265.733V584.137ZM-265.733 569.996H-277.191V558.538H-265.733V569.996ZM-265.733 556.1H-277.191V544.642H-265.733V556.1ZM-265.733 542.204H-277.191V530.745H-265.733V542.204ZM-264.27 501.246H-252.812V512.704H-264.27V501.246ZM-251.349 626.313H-262.807V614.855H-251.349V626.313ZM-251.349 612.417H-262.807V600.959H-251.349V612.417ZM-251.349 598.033H-262.807V586.575H-251.349V598.033ZM-251.349 584.137H-262.807V572.678H-251.349V584.137ZM-251.349 569.996H-262.807V558.538H-251.349V569.996ZM-251.349 556.1H-262.807V544.642H-251.349V556.1ZM-251.349 542.204H-262.807V530.745H-251.349V542.204ZM-236.721 626.313H-248.18V614.855H-236.721V626.313ZM-236.721 612.417H-248.18V600.959H-236.721V612.417ZM-236.721 598.033H-248.18V586.575H-236.721V598.033ZM-236.721 584.137H-248.18V572.678H-236.721V584.137ZM-236.721 569.996H-248.18V558.538H-236.721V569.996ZM-236.721 556.1H-248.18V544.642H-236.721V556.1ZM-236.721 542.204H-248.18V530.745H-236.721V542.204ZM-218.193 512.46H-229.651V501.002H-218.193V512.46ZM-218.193 498.076H-229.651V486.618H-218.193V498.076ZM-218.193 483.449H-229.651V471.99H-218.193V483.449ZM-218.193 469.065H-229.651V457.606H-218.193V469.065ZM-218.193 454.437H-229.651V442.978H-218.193V454.437ZM-201.859 626.313H-213.317V614.855H-201.859V626.313ZM-201.859 612.417H-213.317V600.959H-201.859V612.417ZM-201.859 598.033H-213.317V586.575H-201.859V598.033ZM-201.859 584.137H-213.317V572.678H-201.859V584.137ZM-201.859 569.996H-213.317V558.538H-201.859V569.996ZM-201.859 556.1H-213.317V544.642H-201.859V556.1ZM-201.859 542.204H-213.317V530.745H-201.859V542.204ZM-200.64 512.46H-212.098V501.002H-200.64V512.46ZM-200.64 498.076H-212.098V486.618H-200.64V498.076ZM-200.64 483.449H-212.098V471.99H-200.64V483.449ZM-200.64 469.065H-212.098V457.606H-200.64V469.065ZM-200.64 454.437H-212.098V442.978H-200.64V454.437ZM-186.743 626.313H-198.202V614.855H-186.743V626.313ZM-186.743 612.417H-198.202V600.959H-186.743V612.417ZM-186.743 598.033H-198.202V586.575H-186.743V598.033ZM-186.743 584.137H-198.202V572.678H-186.743V584.137ZM-186.743 569.996H-198.202V558.538H-186.743V569.996ZM-186.743 556.1H-198.202V544.642H-186.743V556.1ZM-186.743 542.204H-198.202V530.745H-186.743V542.204ZM-164.071 637.041H-171.384V629.727H-164.071V637.041ZM-164.071 607.297H-171.141V609.735H-164.071V617.049H-171.141V619.731H-164.071V627.045H-171.384V626.313H-182.599V614.855H-171.384V612.173H-182.599V600.715H-171.384V599.74H-164.071V607.297ZM-164.071 567.315H-171.141V569.996H-164.071V577.31H-171.141V579.992H-164.071V587.306H-171.141V589.988H-164.071V597.302H-171.141V598.033H-182.599V586.575H-171.384V583.893H-182.599V572.434H-171.384V569.753H-182.599V558.294H-171.141V559.513H-164.071V567.315ZM-164.071 537.328H-171.141V540.01H-164.071V547.323H-171.141V550.005H-164.071V557.319H-171.384V556.1H-182.599V544.642H-171.384V541.96H-182.599V530.501H-171.384V529.77H-164.071V537.328ZM-164.071 527.576H-171.384V520.262H-164.071V527.576ZM-164.071 517.58H-171.384V510.266H-164.071V517.58ZM-164.071 507.585H-171.384V500.271H-164.071V507.585ZM-164.071 497.589H-171.384V490.275H-164.071V497.589ZM-164.071 487.593H-171.384V480.279H-164.071V487.593ZM-164.071 477.598H-171.384V470.284H-164.071V477.598ZM-164.071 467.602H-171.384V460.288H-164.071V467.602ZM-154.075 637.041H-161.389V629.727H-154.075V637.041ZM-154.075 627.289H-161.389V619.975H-154.075V627.289ZM-154.075 617.293H-161.389V609.979H-154.075V617.293ZM-154.075 607.297H-161.389V599.983H-154.075V607.297ZM-154.075 597.302H-161.389V589.988H-154.075V597.302ZM-154.075 587.306H-161.389V579.992H-154.075V587.306ZM-154.075 577.31H-161.389V569.996H-154.075V577.31ZM-154.075 567.315H-161.389V560.001H-154.075V567.315ZM-154.075 557.319H-161.389V550.005H-154.075V557.319ZM-154.075 547.323H-161.389V540.01H-154.075V547.323ZM-154.075 537.328H-161.389V530.014H-154.075V537.328ZM-154.075 527.576H-161.389V520.262H-154.075V527.576ZM-154.075 517.58H-161.389V510.266H-154.075V517.58ZM-154.075 507.585H-161.389V500.271H-154.075V507.585ZM-154.075 497.589H-161.389V490.275H-154.075V497.589ZM-154.075 487.593H-161.389V480.279H-154.075V487.593ZM-154.075 477.598H-161.389V470.284H-154.075V477.598ZM-154.075 467.602H-161.389V460.288H-154.075V467.602ZM-144.323 637.041H-151.637V629.727H-144.323V637.041ZM-144.323 627.289H-151.637V619.975H-144.323V627.289ZM-144.323 617.293H-151.637V609.979H-144.323V617.293ZM-144.323 607.297H-151.637V599.983H-144.323V607.297ZM-144.323 597.302H-151.637V589.988H-144.323V597.302ZM-144.323 587.306H-151.637V579.992H-144.323V587.306ZM-144.323 577.31H-151.637V569.996H-144.323V577.31ZM-144.323 567.315H-151.637V560.001H-144.323V567.315ZM-144.323 557.319H-151.637V550.005H-144.323V557.319ZM-144.323 547.323H-151.637V540.01H-144.323V547.323ZM-144.323 537.328H-151.637V530.014H-144.323V537.328ZM-144.323 527.576H-151.637V520.262H-144.323V527.576ZM-144.323 517.58H-151.637V510.266H-144.323V517.58ZM-144.323 507.585H-151.637V500.271H-144.323V507.585ZM-144.323 497.589H-151.637V490.275H-144.323V497.589ZM-144.323 487.593H-151.637V480.279H-144.323V487.593ZM-144.323 477.598H-151.637V470.284H-144.323V477.598ZM-144.323 467.602H-151.637V460.288H-144.323V467.602ZM-134.328 637.041H-141.642V629.727H-134.328V637.041ZM-134.328 627.289H-141.642V619.975H-134.328V627.289ZM-134.328 617.293H-141.642V609.979H-134.328V617.293ZM-134.328 607.297H-141.642V599.983H-134.328V607.297ZM-134.328 597.302H-141.642V589.988H-134.328V597.302ZM-134.328 587.306H-141.642V579.992H-134.328V587.306ZM-134.328 577.31H-141.642V569.996H-134.328V577.31ZM-134.328 567.315H-141.642V560.001H-134.328V567.315ZM-134.328 557.319H-141.642V550.005H-134.328V557.319ZM-134.328 547.323H-141.642V540.01H-134.328V547.323ZM-134.328 537.328H-141.642V530.014H-134.328V537.328ZM-134.328 527.576H-141.642V520.262H-134.328V527.576ZM-134.328 517.58H-141.642V510.266H-134.328V517.58ZM-134.328 507.585H-141.642V500.271H-134.328V507.585ZM-134.328 497.589H-141.642V490.275H-134.328V497.589ZM-134.328 487.593H-141.642V480.279H-134.328V487.593ZM-134.328 477.598H-141.642V470.284H-134.328V477.598ZM-134.328 467.602H-141.642V460.288H-134.328V467.602ZM-124.332 637.041H-131.646V629.727H-124.332V637.041ZM-124.332 627.289H-131.646V619.975H-124.332V627.289ZM-124.332 617.293H-131.646V609.979H-124.332V617.293ZM-124.332 607.297H-131.646V599.983H-124.332V607.297ZM-124.332 597.302H-131.646V589.988H-124.332V597.302ZM-124.332 587.306H-131.646V579.992H-124.332V587.306ZM-124.332 577.31H-131.646V569.996H-124.332V577.31ZM-124.332 567.315H-131.646V560.001H-124.332V567.315ZM-124.332 557.319H-131.646V550.005H-124.332V557.319ZM-124.332 547.323H-131.646V540.01H-124.332V547.323ZM-124.332 537.328H-131.646V530.014H-124.332V537.328ZM-124.332 527.576H-131.646V520.262H-124.332V527.576ZM-124.332 517.58H-131.646V510.266H-124.332V517.58ZM-124.332 507.585H-131.646V500.271H-124.332V507.585ZM-124.332 497.589H-131.646V490.275H-124.332V497.589ZM-124.332 487.593H-131.646V480.279H-124.332V487.593ZM-124.332 477.598H-131.646V470.284H-124.332V477.598ZM-124.332 467.602H-131.646V460.288H-124.332V467.602ZM-114.337 637.041H-121.65V629.727H-114.337V637.041ZM-114.337 627.289H-121.65V619.975H-114.337V627.289ZM-114.337 617.293H-121.65V609.979H-114.337V617.293ZM-114.337 607.297H-121.65V599.983H-114.337V607.297ZM-114.337 597.302H-121.65V589.988H-114.337V597.302ZM-114.337 587.306H-121.65V579.992H-114.337V587.306ZM-114.337 577.31H-121.65V569.996H-114.337V577.31ZM-114.337 567.315H-121.65V560.001H-114.337V567.315ZM-114.337 557.319H-121.65V550.005H-114.337V557.319ZM-114.337 547.323H-121.65V540.01H-114.337V547.323ZM-114.337 537.328H-121.65V530.014H-114.337V537.328ZM-114.337 527.576H-121.65V520.262H-114.337V527.576ZM-114.337 517.58H-121.65V510.266H-114.337V517.58ZM-114.337 507.585H-121.65V500.271H-114.337V507.585ZM-114.337 497.589H-121.65V490.275H-114.337V497.589ZM-114.337 487.593H-121.65V480.279H-114.337V487.593ZM-114.337 477.598H-121.65V470.284H-114.337V477.598ZM-114.337 467.602H-121.65V460.288H-114.337V467.602ZM-94.1017 635.578H-101.659V455.9H-94.1017V635.578ZM-80.9369 635.578H-88.4945V455.9H-80.9369V635.578ZM-68.0157 635.578H-75.5734V455.9H-68.0157V635.578ZM-54.8509 635.578H-62.4085V455.9H-54.8509V635.578ZM-41.686 635.578H-49.2437V455.9H-41.686V635.578ZM16.5807 629.97H11.7048V352.042H16.5807V629.97ZM26.0887 629.97H21.2129V352.042H26.0887V629.97ZM35.8405 629.97H30.9647V352.042H35.8405V629.97ZM79.4797 629.97H45.836V352.042H79.4797V629.97ZM92.6445 629.97H87.7686V352.042H92.6445V629.97ZM102.152 629.97H97.2766V352.042H102.152V629.97ZM111.66 629.97H106.785V352.042H111.66V629.97ZM120.437 629.97H115.561V352.042H120.437V629.97ZM353.017 338.146V343.753H306.696V338.146H353.017ZM306.696 524.65V519.043H353.017V524.65H306.696ZM353.017 531.964V537.572H306.696V531.964H353.017ZM306.696 511.729V506.122H353.017V511.729H306.696ZM306.696 498.808V493.201H353.017V498.808H306.696ZM306.696 485.887V480.279H353.017V485.887H306.696ZM306.696 472.965V467.358H353.017V472.965H306.696ZM306.696 460.044V454.437H353.017V460.044H306.696ZM306.696 447.123V441.516H353.017V447.123H306.696ZM306.696 434.202V428.594H353.017V434.202H306.696ZM306.696 421.281V415.673H353.017V421.281H306.696ZM306.696 408.359V402.752H353.017V408.359H306.696ZM306.696 395.438V389.831H353.017V395.438H306.696ZM306.696 382.517V376.91H353.017V382.517H306.696ZM306.696 369.596V363.988H353.017V369.596H306.696ZM306.696 356.674V351.067H353.017V356.674H306.696ZM285.486 312.791H291.337V318.398H285.486V312.791ZM235.02 312.791H243.065V318.398H235.02V312.791ZM184.067 617.781H170.902V608.029H184.067V617.781ZM215.273 589.256H213.323H184.067V593.645H170.902V583.893H183.823V583.649H213.566V576.335H183.823V570.728H213.566V563.414H183.823V557.807H213.566V550.493H183.823V545.373H170.902V535.621H183.823V531.964H213.566V524.65H183.823V519.043H213.566V511.729H183.823V506.122H213.566V498.808H183.823V497.101H170.902V487.349H184.067V493.201H213.323V485.887H183.58V480.279H213.323V472.965H184.067H170.902V463.214H184.067V467.358H213.323V460.044H183.58V454.437H213.323V447.123H183.58V441.516H213.323V434.202H183.58V428.594H213.323V421.281H183.58V415.673H213.323V408.359H183.58V402.752H213.323V395.438H183.58V389.831H213.323V382.517H183.58V376.91H213.323V369.596H183.58V363.988H213.323V356.674H183.58V351.067H213.323V343.753H183.58V338.146H213.323H215.273V589.256ZM216.979 318.642H208.69V313.035H216.979V318.642ZM221.855 312.791H229.901V318.398H221.855V312.791ZM253.792 589.256H224.293V583.649H254.036V589.256H253.792ZM253.792 576.335H224.293V570.728H254.036V576.335H253.792ZM253.792 563.414H224.293V557.807H254.036V563.414H253.792ZM253.792 550.493H224.293V544.885H254.036V550.493H253.792ZM253.792 537.572H224.293V531.964H254.036V537.572H253.792ZM253.792 524.65H224.293V519.043H254.036V524.65H253.792ZM253.792 511.729H224.293V506.122H254.036V511.729H253.792ZM253.792 498.808H224.293V493.201H254.036V498.808H253.792ZM253.792 485.887H224.293V480.279H254.036V485.887H253.792ZM253.792 472.965H224.293V467.358H254.036V472.965H253.792ZM253.792 460.044H224.293V454.437H254.036V460.044H253.792ZM253.792 447.123H224.293V441.516H254.036V447.123H253.792ZM253.792 434.202H224.293V428.594H254.036V434.202H253.792ZM253.792 421.281H224.293V415.673H254.036V421.281H253.792ZM253.792 408.359H224.293V402.752H254.036V408.359H253.792ZM253.792 395.438H224.293V389.831H254.036V395.438H253.792ZM253.792 382.517H224.293V376.91H254.036V382.517H253.792ZM253.792 369.596H224.293V363.988H254.036V369.596H253.792ZM253.792 356.674H224.293V351.067H254.036V356.674H253.792ZM253.792 343.753H224.293V338.146H254.036V343.753H253.792ZM256.23 318.642H247.941V313.035H256.23V318.642ZM261.106 312.791H269.395V318.398H261.106V312.791ZM294.506 343.753H264.763V351.067H294.506V356.674H264.763V363.988H294.506V369.596H264.763V376.91H294.506V382.517H264.763V389.831H294.506V395.438H264.763V402.752H294.506V408.359H264.763V415.673H294.506V421.281H264.763V428.594H294.506V434.202H264.763V441.516H294.506V447.123H264.763V454.437H294.506V460.044H264.763V467.358H294.506V472.965H264.763V480.279H294.506V485.887H264.763V493.201H294.506V498.808H264.763V506.122H294.506V511.729H264.763V519.043H294.506V524.65H264.763V531.964H294.506V537.572H264.763V544.885H294.506V550.493H264.763V557.807H294.506V563.414H264.763V570.728H294.506V576.335H264.763V583.649H294.506V589.256H264.763H262.813V338.146H264.763H294.506V343.753ZM302.551 312.791H308.402V318.398H302.551V312.791ZM354.235 617.293H334.488V609.979H354.235V617.293ZM354.235 603.884H334.488V596.57H354.235V603.884ZM354.235 590.475H334.488V589.256H306.939V583.649H334.488V583.161H354.235V590.475ZM354.235 576.823H334.488V576.335H306.939V570.728H334.488V569.509H354.235V576.823ZM354.235 563.414H334.488H306.939V557.807H334.488V556.1H354.235V563.414ZM354.235 550.005H353.26V550.493H306.939V544.885H334.488V542.691H354.235V550.005ZM381.784 617.293H362.037V609.979H381.784V617.293ZM381.784 603.884H362.037V596.57H381.784V603.884ZM381.784 590.475H362.037V583.161H381.784V590.475ZM381.784 576.823H362.037V569.509H381.784V576.823ZM381.784 563.414H362.037V556.1H381.784V563.414ZM381.784 550.005H362.037V542.691H381.784V550.005ZM409.577 617.293H389.829V609.979H409.577V617.293ZM409.577 603.884H389.829V596.57H409.577V603.884ZM409.577 590.475H389.829V583.161H409.577V590.475ZM409.577 576.823H389.829V569.509H409.577V576.823ZM409.577 563.414H389.829V556.1H409.577V563.414ZM409.577 550.005H389.829V542.691H409.577V550.005ZM422.254 397.388H435.419V410.553H422.254V397.388ZM422.254 429.57H435.419V442.735H422.254V429.57ZM422.254 494.176H435.419V507.341H422.254V494.176ZM422.254 526.601H435.419V539.766H422.254V526.601ZM422.254 590.963H435.419V604.128H422.254V590.963ZM455.166 617.293H435.419V609.979H455.166V617.293ZM455.166 590.475H435.419V583.161H455.166V590.475ZM455.166 563.414H435.419V569.509H455.166V576.823H435.419V571.947H422.254V558.782H435.419V556.1H455.166V563.414ZM455.166 550.005H435.419V542.691H455.166V550.005ZM514.164 633.871H505.632V625.338H514.164V633.871ZM514.164 622.657H505.632V614.124H514.164V622.657ZM514.164 611.442H505.632V602.909H514.164V611.442ZM514.164 600.227H505.632V591.694H514.164V600.227ZM514.164 589.013H505.632V580.48H514.164V589.013ZM514.164 577.798H505.632V569.265H514.164V577.798ZM514.164 566.34H505.632V557.807H514.164V566.34ZM514.164 555.125H505.632V546.592H514.164V555.125ZM514.164 543.91H505.632V535.377H514.164V543.91ZM514.164 532.696H505.632V524.163H514.164V532.696ZM514.164 521.481H505.632V512.948H514.164V521.481ZM514.164 510.266H505.632V501.733H514.164V510.266ZM514.164 499.052H505.632V490.519H514.164V499.052ZM514.164 487.837H505.632V479.304H514.164V487.837ZM514.164 476.622H505.632V468.089H514.164V476.622ZM514.164 465.408H505.632V456.875H514.164V465.408ZM514.164 454.193H505.632V445.66H514.164V454.193ZM514.164 442.978H505.632V434.446H514.164V442.978ZM525.867 633.871H517.334V625.338H525.867V633.871ZM525.867 622.657H517.334V614.124H525.867V622.657ZM525.867 611.442H517.334V602.909H525.867V611.442ZM525.867 600.227H517.334V591.694H525.867V600.227ZM525.867 589.013H517.334V580.48H525.867V589.013ZM525.867 577.798H517.334V569.265H525.867V577.798ZM525.867 566.34H517.334V557.807H525.867V566.34ZM525.867 555.125H517.334V546.592H525.867V555.125ZM525.867 543.91H517.334V535.377H525.867V543.91ZM525.867 532.696H517.334V524.163H525.867V532.696ZM525.867 521.481H517.334V512.948H525.867V521.481ZM525.867 510.266H517.334V501.733H525.867V510.266ZM525.867 499.052H517.334V490.519H525.867V499.052ZM525.867 487.837H517.334V479.304H525.867V487.837ZM525.867 476.622H517.334V468.089H525.867V476.622ZM525.867 465.408H517.334V456.875H525.867V465.408ZM525.867 454.193H517.334V445.66H525.867V454.193ZM525.867 442.978H517.334V434.446H525.867V442.978ZM537.569 633.871H529.036V625.338H537.569V633.871ZM537.569 622.657H529.036V614.124H537.569V622.657ZM537.569 611.442H529.036V602.909H537.569V611.442ZM537.569 600.227H529.036V591.694H537.569V600.227ZM537.569 589.013H529.036V580.48H537.569V589.013ZM537.569 577.798H529.036V569.265H537.569V577.798ZM537.569 566.34H529.036V557.807H537.569V566.34ZM537.569 555.125H529.036V546.592H537.569V555.125ZM537.569 543.91H529.036V535.377H537.569V543.91ZM537.569 532.696H529.036V524.163H537.569V532.696ZM537.569 521.481H529.036V512.948H537.569V521.481ZM537.569 510.266H529.036V501.733H537.569V510.266ZM537.569 499.052H529.036V490.519H537.569V499.052ZM537.569 487.837H529.036V479.304H537.569V487.837ZM537.569 476.622H529.036V468.089H537.569V476.622ZM537.569 465.408H529.036V456.875H537.569V465.408ZM537.569 454.193H529.036V445.66H537.569V454.193ZM537.569 442.978H529.036V434.446H537.569V442.978ZM549.271 633.871H540.738V625.338H549.271V633.871ZM549.271 622.657H540.738V614.124H549.271V622.657ZM549.271 611.442H540.738V602.909H549.271V611.442ZM549.271 600.227H540.738V591.694H549.271V600.227ZM549.271 589.013H540.738V580.48H549.271V589.013ZM549.271 577.798H540.738V569.265H549.271V577.798ZM549.271 566.34H540.738V557.807H549.271V566.34ZM549.271 555.125H540.738V546.592H549.271V555.125ZM549.271 543.91H540.738V535.377H549.271V543.91ZM549.271 532.696H540.738V524.163H549.271V532.696ZM549.271 521.481H540.738V512.948H549.271V521.481ZM549.271 510.266H540.738V501.733H549.271V510.266ZM549.271 499.052H540.738V490.519H549.271V499.052ZM549.271 487.837H540.738V479.304H549.271V487.837ZM549.271 476.622H540.738V468.089H549.271V476.622ZM549.271 465.408H540.738V456.875H549.271V465.408ZM549.271 454.193H540.738V445.66H549.271V454.193ZM549.271 442.978H540.738V434.446H549.271V442.978ZM560.973 633.871H552.44V625.338H560.973V633.871ZM560.973 622.657H552.44V614.124H560.973V622.657ZM560.973 611.442H552.44V602.909H560.973V611.442ZM560.973 600.227H552.44V591.694H560.973V600.227ZM560.973 589.013H552.44V580.48H560.973V589.013ZM560.973 577.798H552.44V569.265H560.973V577.798ZM560.973 566.34H552.44V557.807H560.973V566.34ZM560.973 555.125H552.44V546.592H560.973V555.125ZM560.973 543.91H552.44V535.377H560.973V543.91ZM560.973 532.696H552.44V524.163H560.973V532.696ZM560.973 521.481H552.44V512.948H560.973V521.481ZM560.973 510.266H552.44V501.733H560.973V510.266ZM560.973 499.052H552.44V490.519H560.973V499.052ZM560.973 487.837H552.44V479.304H560.973V487.837ZM560.973 476.622H552.44V468.089H560.973V476.622ZM560.973 465.408H552.44V456.875H560.973V465.408ZM560.973 454.193H552.44V445.66H560.973V454.193ZM560.973 442.978H552.44V434.446H560.973V442.978ZM613.389 633.871H604.856V625.338H613.389V633.871ZM613.389 622.657H604.856V614.124H613.389V622.657ZM613.389 611.442H604.856V602.909H613.389V611.442ZM613.389 600.227H604.856V591.694H613.389V600.227ZM613.389 589.013H604.856V580.48H613.389V589.013ZM613.389 577.798H604.856V569.265H613.389V577.798ZM613.389 566.34H604.856V557.807H613.389V566.34ZM613.389 555.125H604.856V546.592H613.389V555.125ZM613.389 543.91H604.856V535.377H613.389V543.91ZM613.389 532.696H604.856V524.163H613.389V532.696ZM613.389 521.481H604.856V512.948H613.389V521.481ZM613.389 510.266H604.856V501.733H613.389V510.266ZM613.389 499.052H604.856V490.519H613.389V499.052ZM613.389 487.837H604.856V479.304H613.389V487.837ZM613.389 476.622H604.856V468.089H613.389V476.622ZM613.389 465.408H604.856V456.875H613.389V465.408ZM613.389 454.193H604.856V445.66H613.389V454.193ZM613.389 442.978H604.856V434.446H613.389V442.978ZM624.603 633.871H616.07V625.338H624.603V633.871ZM624.603 622.657H616.07V614.124H624.603V622.657ZM624.603 611.442H616.07V602.909H624.603V611.442ZM624.603 600.227H616.07V591.694H624.603V600.227ZM624.603 589.013H616.07V580.48H624.603V589.013ZM624.603 577.798H616.07V569.265H624.603V577.798ZM624.603 566.34H616.07V557.807H624.603V566.34ZM624.603 555.125H616.07V546.592H624.603V555.125ZM624.603 543.91H616.07V535.377H624.603V543.91ZM624.603 532.696H616.07V524.163H624.603V532.696ZM624.603 521.481H616.07V512.948H624.603V521.481ZM624.603 510.266H616.07V501.733H624.603V510.266ZM624.603 499.052H616.07V490.519H624.603V499.052ZM624.603 487.837H616.07V479.304H624.603V487.837ZM624.603 476.622H616.07V468.089H624.603V476.622ZM624.603 465.408H616.07V456.875H624.603V465.408ZM624.603 454.193H616.07V445.66H624.603V454.193ZM624.603 442.978H616.07V434.446H624.603V442.978ZM636.062 633.871H627.529V625.338H636.062V633.871ZM636.062 622.657H627.529V614.124H636.062V622.657ZM636.062 611.442H627.529V602.909H636.062V611.442ZM636.062 600.227H627.529V591.694H636.062V600.227ZM636.062 589.013H627.529V580.48H636.062V589.013ZM636.062 577.798H627.529V569.265H636.062V577.798ZM636.062 566.34H627.529V557.807H636.062V566.34ZM636.062 555.125H627.529V546.592H636.062V555.125ZM636.062 543.91H627.529V535.377H636.062V543.91ZM636.062 532.696H627.529V524.163H636.062V532.696ZM636.062 521.481H627.529V512.948H636.062V521.481ZM636.062 510.266H627.529V501.733H636.062V510.266ZM636.062 499.052H627.529V490.519H636.062V499.052ZM636.062 487.837H627.529V479.304H636.062V487.837ZM636.062 476.622H627.529V468.089H636.062V476.622ZM636.062 465.408H627.529V456.875H636.062V465.408ZM636.062 454.193H627.529V445.66H636.062V454.193ZM636.062 442.978H627.529V434.446H636.062V442.978ZM647.52 633.871H638.987V625.338H647.52V633.871ZM647.52 622.657H638.987V614.124H647.52V622.657ZM647.52 611.442H638.987V602.909H647.52V611.442ZM647.52 600.227H638.987V591.694H647.52V600.227ZM647.52 589.013H638.987V580.48H647.52V589.013ZM647.52 577.798H638.987V569.265H647.52V577.798ZM647.52 566.34H638.987V557.807H647.52V566.34ZM647.52 555.125H638.987V546.592H647.52V555.125ZM647.52 543.91H638.987V535.377H647.52V543.91ZM647.52 532.696H638.987V524.163H647.52V532.696ZM647.52 521.481H638.987V512.948H647.52V521.481ZM647.52 510.266H638.987V501.733H647.52V510.266ZM647.52 499.052H638.987V490.519H647.52V499.052ZM647.52 487.837H638.987V479.304H647.52V487.837ZM647.52 476.622H638.987V468.089H647.52V476.622ZM647.52 465.408H638.987V456.875H647.52V465.408ZM647.52 454.193H638.987V445.66H647.52V454.193ZM647.52 442.978H638.987V434.446H647.52V442.978ZM658.978 633.871H650.445V625.338H658.978V633.871ZM658.978 622.657H650.445V614.124H658.978V622.657ZM658.978 611.442H650.445V602.909H658.978V611.442ZM658.978 600.227H650.445V591.694H658.978V600.227ZM658.978 589.013H650.445V580.48H658.978V589.013ZM658.978 577.798H650.445V569.265H658.978V577.798ZM658.978 566.34H650.445V557.807H658.978V566.34ZM658.978 555.125H650.445V546.592H658.978V555.125ZM658.978 543.91H650.445V535.377H658.978V543.91ZM658.978 532.696H650.445V524.163H658.978V532.696ZM658.978 521.481H650.445V512.948H658.978V521.481ZM658.978 510.266H650.445V501.733H658.978V510.266ZM658.978 499.052H650.445V490.519H658.978V499.052ZM658.978 487.837H650.445V479.304H658.978V487.837ZM658.978 476.622H650.445V468.089H658.978V476.622ZM658.978 465.408H650.445V456.875H658.978V465.408ZM658.978 454.193H650.445V445.66H658.978V454.193ZM658.978 442.978H650.445V434.446H658.978V442.978ZM670.193 633.871H661.66V625.338H670.193V633.871ZM670.193 622.657H661.66V614.124H670.193V622.657ZM670.193 611.442H661.66V602.909H670.193V611.442ZM670.193 600.227H661.66V591.694H670.193V600.227ZM670.193 589.013H661.66V580.48H670.193V589.013ZM670.193 577.798H661.66V569.265H670.193V577.798ZM670.193 566.34H661.66V557.807H670.193V566.34ZM670.193 555.125H661.66V546.592H670.193V555.125ZM670.193 543.91H661.66V535.377H670.193V543.91ZM670.193 532.696H661.66V524.163H670.193V532.696ZM670.193 521.481H661.66V512.948H670.193V521.481ZM670.193 510.266H661.66V501.733H670.193V510.266ZM670.193 499.052H661.66V490.519H670.193V499.052ZM670.193 487.837H661.66V479.304H670.193V487.837ZM670.193 476.622H661.66V468.089H670.193V476.622ZM670.193 465.408H661.66V456.875H670.193V465.408ZM670.193 454.193H661.66V445.66H670.193V454.193ZM670.193 442.978H661.66V434.446H670.193V442.978ZM681.651 633.871H673.118V625.338H681.651V633.871ZM681.651 622.657H673.118V614.124H681.651V622.657ZM681.651 611.442H673.118V602.909H681.651V611.442ZM681.651 600.227H673.118V591.694H681.651V600.227ZM681.651 589.013H673.118V580.48H681.651V589.013ZM681.651 577.798H673.118V569.265H681.651V577.798ZM681.651 566.34H673.118V557.807H681.651V566.34ZM681.651 555.125H673.118V546.592H681.651V555.125ZM681.651 543.91H673.118V535.377H681.651V543.91ZM681.651 532.696H673.118V524.163H681.651V532.696ZM681.651 521.481H673.118V512.948H681.651V521.481ZM681.651 510.266H673.118V501.733H681.651V510.266ZM681.651 499.052H673.118V490.519H681.651V499.052ZM681.651 487.837H673.118V479.304H681.651V487.837ZM681.651 476.622H673.118V468.089H681.651V476.622ZM681.651 465.408H673.118V456.875H681.651V465.408ZM681.651 454.193H673.118V445.66H681.651V454.193ZM681.651 442.978H673.118V434.446H681.651V442.978ZM693.109 633.871H684.576V625.338H693.109V633.871ZM693.109 622.657H684.576V614.124H693.109V622.657ZM693.109 611.442H684.576V602.909H693.109V611.442ZM693.109 600.227H684.576V591.694H693.109V600.227ZM693.109 589.013H684.576V580.48H693.109V589.013ZM693.109 577.798H684.576V569.265H693.109V577.798ZM693.109 566.34H684.576V557.807H693.109V566.34ZM693.109 555.125H684.576V546.592H693.109V555.125ZM693.109 543.91H684.576V535.377H693.109V543.91ZM693.109 532.696H684.576V524.163H693.109V532.696ZM693.109 521.481H684.576V512.948H693.109V521.481ZM693.109 510.266H684.576V501.733H693.109V510.266ZM693.109 499.052H684.576V490.519H693.109V499.052ZM693.109 487.837H684.576V479.304H693.109V487.837ZM693.109 476.622H684.576V468.089H693.109V476.622ZM693.109 465.408H684.576V456.875H693.109V465.408ZM693.109 454.193H684.576V445.66H693.109V454.193ZM693.109 442.978H684.576V434.446H693.109V442.978ZM704.568 633.871H696.035V625.338H704.568V633.871ZM704.568 622.657H696.035V614.124H704.568V622.657ZM704.568 611.442H696.035V602.909H704.568V611.442ZM704.568 600.227H696.035V591.694H704.568V600.227ZM704.568 589.013H696.035V580.48H704.568V589.013ZM704.568 577.798H696.035V569.265H704.568V577.798ZM704.568 566.34H696.035V557.807H704.568V566.34ZM704.568 555.125H696.035V546.592H704.568V555.125ZM704.568 543.91H696.035V535.377H704.568V543.91ZM704.568 532.696H696.035V524.163H704.568V532.696ZM704.568 521.481H696.035V512.948H704.568V521.481ZM704.568 510.266H696.035V501.733H704.568V510.266ZM704.568 499.052H696.035V490.519H704.568V499.052ZM704.568 487.837H696.035V479.304H704.568V487.837ZM704.568 476.622H696.035V468.089H704.568V476.622ZM704.568 465.408H696.035V456.875H704.568V465.408ZM704.568 454.193H696.035V445.66H704.568V454.193ZM704.568 442.978H696.035V434.446H704.568V442.978ZM715.782 633.871H707.249V625.338H715.782V633.871ZM715.782 622.657H707.249V614.124H715.782V622.657ZM715.782 611.442H707.249V602.909H715.782V611.442ZM715.782 600.227H707.249V591.694H715.782V600.227ZM715.782 589.013H707.249V580.48H715.782V589.013ZM715.782 577.798H707.249V569.265H715.782V577.798ZM715.782 566.34H707.249V557.807H715.782V566.34ZM715.782 555.125H707.249V546.592H715.782V555.125ZM715.782 543.91H707.249V535.377H715.782V543.91ZM715.782 532.696H707.249V524.163H715.782V532.696ZM715.782 521.481H707.249V512.948H715.782V521.481ZM715.782 510.266H707.249V501.733H715.782V510.266ZM715.782 499.052H707.249V490.519H715.782V499.052ZM715.782 487.837H707.249V479.304H715.782V487.837ZM715.782 476.622H707.249V468.089H715.782V476.622ZM715.782 465.408H707.249V456.875H715.782V465.408ZM715.782 454.193H707.249V445.66H715.782V454.193ZM715.782 442.978H707.249V434.446H715.782V442.978ZM729.678 658.738H722.608V633.871H718.708V625.338H722.608V622.657H718.708V614.124H722.608V611.442H718.708V602.909H722.608V600.227H718.708V591.694H722.608V589.013H718.708V580.48H722.608V577.798H718.708V569.265H722.608V566.583H718.708V558.05H722.608V555.369H718.708V546.836H722.608V544.154H718.708V535.621H722.608V532.939H718.708V524.163H722.608V521.481H718.708V512.948H722.608V510.266H718.708V501.733H722.608V499.052H718.708V490.519H722.608V487.837H718.708V479.304H722.608V476.622H718.708V468.089H722.608V465.408H718.708V456.875H722.608V454.193H718.708V445.66H722.608V442.978H718.708V434.446H722.608V345.46H729.678V658.738ZM743.331 658.738H736.261V345.216H743.331V658.738ZM757.227 658.738H750.157V345.216H757.227V658.738ZM820.614 658.738H771.855V345.216H820.614V658.738ZM839.386 658.738H832.316V345.216H839.386V658.738ZM853.282 658.738H846.212V345.216H853.282V658.738ZM867.178 658.738H860.108V345.216H867.178V658.738ZM880.099 658.738H873.029V345.216H880.099V658.738Z" fill="#7D9FAD" fill-opacity="0.08"/>
</g>
</svg>
